<svg width="26" height="18" viewBox="0 0 26 18" fill="none" xmlns="http://www.w3.org/2000/svg">
<path d="M25.732 8.34696C24.5487 5.97793 22.7331 3.98243 20.486 2.58128C18.2389 1.18013 15.648 0.427949 13 0.407959C10.352 0.428174 7.76121 1.18045 5.51418 2.58158C3.26715 3.9827 1.45148 5.97807 0.267997 8.34696C0.165695 8.54943 0.112396 8.77311 0.112396 8.99996C0.112396 9.22681 0.165695 9.45049 0.267997 9.65296C1.4513 12.022 3.26693 14.0175 5.514 15.4186C7.76106 16.8198 10.352 17.572 13 17.592C15.648 17.5717 18.2388 16.8195 20.4858 15.4183C22.7328 14.0172 24.5485 12.0218 25.732 9.65296C25.8343 9.45049 25.8876 9.22681 25.8876 8.99996C25.8876 8.77311 25.8343 8.54943 25.732 8.34696ZM13 15.447C11.7255 15.447 10.4796 15.069 9.4199 14.3609C8.36019 13.6529 7.53425 12.6465 7.04652 11.469C6.55879 10.2915 6.43117 8.99581 6.67982 7.7458C6.92846 6.49578 7.54219 5.34757 8.4434 4.44636C9.34461 3.54515 10.4928 2.93142 11.7428 2.68278C12.9928 2.43414 14.2885 2.56175 15.466 3.04948C16.6435 3.53721 17.6499 4.36315 18.358 5.42286C19.0661 6.48257 19.444 7.72846 19.444 9.00296C19.4432 10.7115 18.7639 12.3498 17.5555 13.5576C16.3471 14.7655 14.7085 15.444 13 15.444V15.447ZM13 4.70696C12.6164 4.71241 12.2353 4.76959 11.867 4.87696C12.1713 5.28934 12.3176 5.79722 12.2793 6.30831C12.241 6.8194 12.0206 7.29979 11.6582 7.66219C11.2958 8.0246 10.8154 8.24498 10.3043 8.28329C9.79326 8.3216 9.28538 8.17529 8.873 7.87096C8.63809 8.73617 8.68042 9.65326 8.99402 10.4932C9.30762 11.3331 9.8767 12.0535 10.6212 12.553C11.3656 13.0525 12.248 13.306 13.1441 13.2778C14.0402 13.2496 14.9049 12.9411 15.6165 12.3958C16.328 11.8504 16.8507 11.0956 17.1108 10.2377C17.371 9.3797 17.3556 8.46176 17.0667 7.61304C16.7779 6.76431 16.2301 6.02753 15.5006 5.5064C14.7711 4.98527 13.8965 4.70602 13 4.70796V4.70696Z" fill="#722ED1"/>
</svg>
